{"title":"Assam Aunty @","uid":5207161,"size":17894773,"categoryP":"porn","categoryS":"movie_clips","magnet":"?xt=urn:btih:bf110c548b12d54e7df9f1671fc7d795046e4d4b&amp;dn=Assam+Aunty+%40+&amp;tr=udp%3A%2F%2Ftracker.openbittorrent.com%3A80&amp;tr=udp%3A%2F%2Fopen.demonii.com%3A1337&amp;tr=udp%3A%2F%2Ftracker.coppersurfer.tk%3A6969&amp;tr=udp%3A%2F%2Fexodus.desync.com%3A6969","seeders":0,"leechers":1,"uploader":"PKJMKJ","files":-1,"time":1260425619,"description":"Assam Aunty Fucked\n\nFor more visit mastitorrents\n\nHere is a real video shot by one of my friends, when He went to the village in Golaghat, Assam for a survey on damage of floods. While in the village He met with this Lady who wanted to declare Her crops being damaged by Floods, in return She Fucked the Guy.\n\n\nGeneral\nComplete name : Assam Aunty.flv\nFormat : Flash Video\nFile size : 16.8 MiB\nDuration : 9mn 11s\nOverall bit rate : 255 Kbps\nTagged date : UTC 2009-11-19 05:15:38\nTagging application : inlet media FLVTool2 v1.0.6 - http://www.inlet-media.de/flvtool2\n\nVideo\nFormat : VP6\nDuration : 9mn 11s\nBit rate : 193 Kbps\nWidth : 176 pixels\nHeight : 144 pixels\nDisplay aspect ratio : 1.222\nFrame rate : 12.000 fps\nBits/(Pixel*Frame) : 0.633\nStream size : 12.7 MiB (76%)\n\nAudio\nFormat : MPEG Audio\nFormat version : Version 2\nFormat profile : Layer 3\nDuration : 9mn 11s\nBit rate mode : Constant\nBit rate : 56.0 Kbps\nChannel(s) : 1 channel\nSampling rate : 22.05 KHz\nResolution : 16 bits\nStream size : 3.92 MiB (23%)\n","torrent":{"xt":"urn:btih:bf110c548b12d54e7df9f1671fc7d795046e4d4b","amp;dn":"Assam+Aunty+%40+","amp;tr":["udp%3A%2F%2Ftracker.openbittorrent.com%3A80","udp%3A%2F%2Fopen.demonii.com%3A1337","udp%3A%2F%2Ftracker.coppersurfer.tk%3A6969","udp%3A%2F%2Fexodus.desync.com%3A6969"],"infoHash":"bf110c548b12d54e7df9f1671fc7d795046e4d4b","infoHashBuffer":{"type":"Buffer","data":[191,17,12,84,139,18,213,78,125,249,241,103,31,199,215,149,4,110,77,75]},"announce":[],"urlList":[]}}